<svg version="1.1" id="b" xmlns="http://www.w3.org/2000/svg" xmlns:xlink="http://www.w3.org/1999/xlink" x="0px" y="0px"
	 viewBox="0 0 64 64" xml:space="preserve">
<g id="c">
	<g>
		<linearGradient id="SVGID_1_" gradientUnits="userSpaceOnUse" x1="11.5554" y1="32.7855" x2="13.1515" y2="34.3854" gradientTransform="matrix(1 0 0 -1 0 66.15)">
			<stop  offset="0" style="stop-color:#C8FF33"/>
			<stop  offset="0.73" style="stop-color:#00FF8E"/>
			<stop  offset="1" style="stop-color:#00FF8E"/>
		</linearGradient>
		<path style="fill:url(#SVGID_1_);" d="M12.4,33.7c1.5,0,1.5-2.3,0-2.3S10.9,33.7,12.4,33.7L12.4,33.7z"/>
		
			<linearGradient id="SVGID_00000027581371424396693920000008227697502302335902_" gradientUnits="userSpaceOnUse" x1="30.3269" y1="16.5789" x2="33.5242" y2="19.7724" gradientTransform="matrix(1 0 0 -1 0 66.15)">
			<stop  offset="0" style="stop-color:#C8FF33"/>
			<stop  offset="0.73" style="stop-color:#00FF8E"/>
			<stop  offset="1" style="stop-color:#00FF8E"/>
		</linearGradient>
		<path style="fill:url(#SVGID_00000027581371424396693920000008227697502302335902_);" d="M31.9,50.2c2.9,0,2.9-4.5,0-4.5
			S29,50.2,31.9,50.2C31.9,50.2,31.9,50.2,31.9,50.2z"/>
		
			<linearGradient id="SVGID_00000031186959973572962570000003190755629031062149_" gradientUnits="userSpaceOnUse" x1="4.8951" y1="32.6132" x2="8.0906" y2="35.8087" gradientTransform="matrix(1 0 0 -1 0 66.15)">
			<stop  offset="0" style="stop-color:#C8FF33"/>
			<stop  offset="0.73" style="stop-color:#00FF8E"/>
			<stop  offset="1" style="stop-color:#00FF8E"/>
		</linearGradient>
		<path style="fill:url(#SVGID_00000031186959973572962570000003190755629031062149_);" d="M6.5,34.2c2.9,0,2.9-4.5,0-4.5
			S3.6,34.2,6.5,34.2L6.5,34.2z"/>
		
			<linearGradient id="SVGID_00000125591787845018466600000004329210081373358510_" gradientUnits="userSpaceOnUse" x1="1.2737" y1="35.1974" x2="2.8697" y2="36.7934" gradientTransform="matrix(1 0 0 -1 0 66.15)">
			<stop  offset="0" style="stop-color:#C8FF33"/>
			<stop  offset="0.73" style="stop-color:#00FF8E"/>
			<stop  offset="1" style="stop-color:#00FF8E"/>
		</linearGradient>
		<path style="fill:url(#SVGID_00000125591787845018466600000004329210081373358510_);" d="M2.1,31.3c1.5,0,1.5-2.3,0-2.3
			S0.6,31.3,2.1,31.3L2.1,31.3z"/>
		
			<linearGradient id="SVGID_00000146497854132839632940000003655091983811497129_" gradientUnits="userSpaceOnUse" x1="8.7513" y1="30.8135" x2="10.3511" y2="32.4132" gradientTransform="matrix(1 0 0 -1 0 66.15)">
			<stop  offset="0" style="stop-color:#C8FF33"/>
			<stop  offset="0.73" style="stop-color:#00FF8E"/>
			<stop  offset="1" style="stop-color:#00FF8E"/>
		</linearGradient>
		<path style="fill:url(#SVGID_00000146497854132839632940000003655091983811497129_);" d="M9.6,35.7c1.5,0,1.5-2.3,0-2.3
			S8.1,35.7,9.6,35.7L9.6,35.7z"/>
		
			<linearGradient id="SVGID_00000146459782228191229960000009254528689965912245_" gradientUnits="userSpaceOnUse" x1="35.3449" y1="15.3344" x2="36.9447" y2="16.9304" gradientTransform="matrix(1 0 0 -1 0 66.15)">
			<stop  offset="0" style="stop-color:#C8FF33"/>
			<stop  offset="0.73" style="stop-color:#00FF8E"/>
			<stop  offset="1" style="stop-color:#00FF8E"/>
		</linearGradient>
		<path style="fill:url(#SVGID_00000146459782228191229960000009254528689965912245_);" d="M36.1,51.1c1.5,0,1.5-2.3,0-2.3
			C34.7,48.9,34.7,51.1,36.1,51.1L36.1,51.1z"/>
		
			<linearGradient id="SVGID_00000057851308488733418710000005493917383397454996_" gradientUnits="userSpaceOnUse" x1="37.6535" y1="13.2798" x2="39.2533" y2="14.8757" gradientTransform="matrix(1 0 0 -1 0 66.15)">
			<stop  offset="0" style="stop-color:#C8FF33"/>
			<stop  offset="0.73" style="stop-color:#00FF8E"/>
			<stop  offset="1" style="stop-color:#00FF8E"/>
		</linearGradient>
		<path style="fill:url(#SVGID_00000057851308488733418710000005493917383397454996_);" d="M38.5,53.2c1.5,0,1.5-2.3,0-2.3
			C37,50.9,37,53.2,38.5,53.2L38.5,53.2z"/>
		
			<linearGradient id="SVGID_00000031909032615539555310000000112866094377691264_" gradientUnits="userSpaceOnUse" x1="35.9363" y1="18.3557" x2="37.536" y2="19.9517" gradientTransform="matrix(1 0 0 -1 0 66.15)">
			<stop  offset="0" style="stop-color:#C8FF33"/>
			<stop  offset="0.73" style="stop-color:#00FF8E"/>
			<stop  offset="1" style="stop-color:#00FF8E"/>
		</linearGradient>
		<path style="fill:url(#SVGID_00000031909032615539555310000000112866094377691264_);" d="M36.7,48.1c1.5,0,1.5-2.3,0-2.3
			C35.3,45.9,35.3,48.1,36.7,48.1L36.7,48.1z"/>
		<g>
			<path style="fill:#35FF94;" d="M44.2,14.3c0,1.1-0.3,2-1,2.6c-0.7,0.6-1.6,0.9-2.8,0.9h-2v-7h2.2c1.1,0,2,0.3,2.7,0.9
				S44.2,13.2,44.2,14.3L44.2,14.3z M42.6,14.4c0-1.5-0.7-2.3-2-2.3h-0.8v4.5h0.6C41.9,16.7,42.6,15.9,42.6,14.4L42.6,14.4z"/>
			<path style="fill:#35FF94;" d="M51.3,10.9v4.5c0,0.5-0.1,1-0.3,1.4c-0.2,0.4-0.6,0.7-1,0.9c-0.4,0.2-1,0.3-1.6,0.3
				c-0.9,0-1.6-0.2-2.1-0.7c-0.5-0.5-0.7-1.1-0.7-1.9v-4.5h1.5v4.3c0,0.5,0.1,0.9,0.3,1.2c0.2,0.3,0.6,0.4,1.1,0.4
				c0.5,0,0.8-0.1,1.1-0.4c0.2-0.3,0.3-0.7,0.3-1.2v-4.3H51.3L51.3,10.9z"/>
			<path style="fill:#35FF94;" d="M57.2,15.9c0,0.6-0.2,1.1-0.7,1.5C56,17.8,55.4,18,54.6,18c-0.7,0-1.4-0.1-2-0.4v-1.4
				c0.5,0.2,0.9,0.4,1.2,0.4c0.3,0.1,0.6,0.1,0.9,0.1c0.3,0,0.6-0.1,0.7-0.2s0.3-0.3,0.3-0.6c0-0.1,0-0.3-0.1-0.4
				c-0.1-0.1-0.2-0.2-0.3-0.3s-0.5-0.3-0.9-0.5c-0.4-0.2-0.7-0.4-1-0.6c-0.2-0.2-0.4-0.4-0.5-0.6c-0.1-0.2-0.2-0.5-0.2-0.9
				c0-0.6,0.2-1.1,0.6-1.5c0.4-0.4,1-0.5,1.7-0.5c0.4,0,0.7,0,1,0.1c0.3,0.1,0.7,0.2,1,0.4l-0.5,1.2c-0.4-0.2-0.7-0.3-0.9-0.3
				C55.5,12.1,55.2,12,55,12c-0.3,0-0.5,0.1-0.6,0.2c-0.1,0.1-0.2,0.3-0.2,0.5c0,0.1,0,0.2,0.1,0.3c0.1,0.1,0.2,0.2,0.3,0.3
				c0.1,0.1,0.4,0.3,0.9,0.5c0.7,0.3,1.1,0.6,1.3,0.9S57.2,15.5,57.2,15.9L57.2,15.9z"/>
			<path style="fill:#35FF94;" d="M61.1,17.9h-1.5v-5.8h-1.9v-1.2H63v1.2h-1.9L61.1,17.9L61.1,17.9z"/>
			<path style="fill:#35FF94;" d="M46.4,28.4l-1.7-5.5h0c0.1,1.1,0.1,1.9,0.1,2.2v3.3h-1.3v-7h2l1.7,5.3h0l1.8-5.3h2v7h-1.4v-3.3
				c0-0.2,0-0.3,0-0.5c0-0.2,0-0.7,0.1-1.6h0l-1.8,5.5L46.4,28.4L46.4,28.4z"/>
			<path style="fill:#35FF94;" d="M56.7,28.4h-4v-7h4v1.2h-2.5v1.5h2.4v1.2h-2.4v1.8h2.5V28.4L56.7,28.4z"/>
		</g>
		<g>
			<path style="fill:#FFFFFF;" d="M29.5,44.7c0.1-0.3,0.3-0.6,0.4-0.9c0.8-2,1.6-4.9,0.4-7.2C30,36.2,29.9,36,29.8,36
				c0.5,0,0.9-0.3,1.2-0.6l0,0l3.8-5.2c0.8-1.1,2.3-2.2,2.2-4c-0.1-3-5.5-6.6-7.6-3.6L24.1,30c-0.3,0.4-0.4,0.9-0.3,1.3
				c-2.2-0.6-5,0.1-8.1,2.3c-1,0.7-1.5,2.1-1,3.2c0.5,0.9,1.4,1.7,1.9,2.3c0.2-0.2-0.3-1-0.1-1.1c0-0.1-0.1-0.1-0.1-0.2
				c0-0.1,0.6-2.2,2.9-3.1c0.2-0.1,0.3-0.3,0.2-0.5C19.4,34,19.2,34,19,34c-1.4,0.6-2.5,1.7-3.1,3c-0.2-0.3-0.3-0.5-0.4-0.8
				c-0.3-0.7,0-1.6,0.7-2.1c3.4-2.3,6.2-2.9,8.4-1.8c0.1,0.1,0.3,0.2,0.5,0.3c2.1,1.5,3.3,2.3,4.3,3.9c1.1,1.6,1,3.8-0.2,7
				c-0.1,0.3-0.2,0.5-0.4,0.8c-0.3,0.6-1,1-1.6,0.8c-0.3-0.1-0.6-0.1-0.9-0.2c0.8-0.5,1.4-1.2,1.6-2.1c0.1-0.2-0.1-0.4-0.3-0.5
				c-0.2-0.1-0.4,0.1-0.5,0.3c-0.3,0.9-1,1.6-1.8,1.9c-0.7-0.3-1-0.5-1.4-0.7c1.9-1.3,3.1-3.5,3.1-5.8c0-0.1,0-0.1,0-0.2
				c-0.2-0.4-0.7-0.2-0.7,0.2c0,2.2-1.2,4.3-3.1,5.4c-0.4-0.3-1.1-0.4-1.4-0.7c0,0-0.5-0.3,0.2-0.1c0.2,0.1-0.3,0.4-0.5,0.6
				c0.2,0.2,0.6,0.3,0.8,0.5c1.4,0.8,1.3,0.9,2.7,1.6c0.8,0.4,1.1,0.6,1.7,0.7C27.8,46.2,29,45.6,29.5,44.7L29.5,44.7z M34.9,28.8
				c-0.9,1-1.6,2.2-4.5,6.1c-0.3,0.4-0.9,0.4-1.2,0.1c-0.2-0.2-0.5-0.4-0.7-0.6c-1-1-2.2-1.8-3-2.3c-0.2-0.1-0.3-0.3-0.5-0.4
				c-0.4-0.3-0.4-0.8-0.2-1.2L30,23c1.4-2,4.9,0.3,5.8,1.9C36.7,26.5,36.1,27.4,34.9,28.8L34.9,28.8z"/>
			<path style="fill:#FFFFFF;" d="M15.4,37.6c2.8,3.5,6.9,6.6,10.6,8.1c0.1,0,0.2,0.1,0.3,0.1c0.5,0,0.1-0.9-0.6-1.1
				c-3.5-1.4-7.4-4.5-9.9-7.8"/>
			<path style="fill:#FFFFFF;" d="M18.4,40.7c0.5-2.1,2.1-3.9,4.2-4.5c0.4-0.1,0.3-0.7-0.1-0.8c-0.1,0-0.1,0-0.2,0
				c-2.2,0.7-3.9,2.5-4.6,4.7"/>
			<path style="fill:#FFFFFF;" d="M20.5,42c0,0,0.1,0.1,0.1,0.1c0.1,0.1,0.1,0.1,0.2,0.2c0.1,0.1,0.4,0.2,0,0c0.1,0,0.2,0.1,0.3,0.2
				c1.6-1,2.8-2.6,3.2-4.5c0-0.1,0-0.1,0-0.2c-0.1-0.4-0.7-0.4-0.8,0C23.2,39.6,22.1,41.1,20.5,42L20.5,42z"/>
		</g>
	</g>
</g>
</svg>
